HIERARCHY
ROOT Hips
{
  OFFSET -32.5998 29.0326 120.673
  CHANNELS 6 Xposition Yposition Zposition Zrotation Xrotation Yrotation
  JOINT LeftUpLeg
  {
    OFFSET 8.64259 1.95398 -2.38835
    CHANNELS 3 Zrotation Xrotation Yrotation
    JOINT LeftLeg
    {
      OFFSET 43.7702 0 0
      CHANNELS 3 Zrotation Xrotation Yrotation
      JOINT LeftFoot
      {
        OFFSET 40.6238 0 0
        CHANNELS 3 Zrotation Xrotation Yrotation
        JOINT LeftToeBase
        {
          OFFSET 12.7242 0 0
          CHANNELS 3 Zrotation Xrotation Yrotation
          End Site
          {
            OFFSET 0 0 0
          }
        }
      }
    }
  }
  JOINT RightUpLeg
  {
    OFFSET -8.2249 1.95398 -2.59336
    CHANNELS 3 Zrotation Xrotation Yrotation
    JOINT RightLeg
    {
      OFFSET 43.5653 0 0
      CHANNELS 3 Zrotation Xrotation Yrotation
      JOINT RightFoot
      {
        OFFSET 40.6238 0 0
        CHANNELS 3 Zrotation Xrotation Yrotation
        JOINT RightToeBase
        {
          OFFSET 12.7242 0 0
          CHANNELS 3 Zrotation Xrotation Yrotation
          End Site
          {
            OFFSET 0 0 0
          }
        }
      }
    }
  }
  JOINT Spine
  {
    OFFSET 0.165834 0.87714 6.61349
    CHANNELS 3 Zrotation Xrotation Yrotation
    JOINT Spine1
    {
      OFFSET 7.38963 1.71661e-005 0
      CHANNELS 3 Zrotation Xrotation Yrotation
      JOINT Spine2
      {
        OFFSET 11.9445 1.14441e-005 0
        CHANNELS 3 Zrotation Xrotation Yrotation
        JOINT Spine3
        {
          OFFSET 14.7254 4.19617e-005 0
          CHANNELS 3 Zrotation Xrotation Yrotation
          JOINT Spine4
          {
            OFFSET 10.9679 0 0
            CHANNELS 3 Zrotation Xrotation Yrotation
            JOINT RightShoulder
            {
              OFFSET 2.46616 -1.6653 3.69651
              CHANNELS 3 Zrotation Xrotation Yrotation
              JOINT RightArm
              {
                OFFSET 13.0012 0 0
                CHANNELS 3 Zrotation Xrotation Yrotation
                JOINT RightForeArm
                {
                  OFFSET 28.7848 1.62311e-005 0
                  CHANNELS 3 Zrotation Xrotation Yrotation
                  JOINT RightHand
                  {
                    OFFSET 26.5688 1.62095e-005 0
                    CHANNELS 3 Zrotation Xrotation Yrotation
                    End Site
                    {
                      OFFSET 0 0 0
                    }
                  }
                }
              }
            }
            JOINT LeftShoulder
            {
              OFFSET 2.38034 -1.29275 -3.7523
              CHANNELS 3 Zrotation Xrotation Yrotation
              JOINT LeftArm
              {
                OFFSET 16.3182 6.07031e-005 0
                CHANNELS 3 Zrotation Xrotation Yrotation
                JOINT LeftForeArm
                {
                  OFFSET 27.0901 0 0
                  CHANNELS 3 Zrotation Xrotation Yrotation
                  JOINT LeftHand
                  {
                    OFFSET 24.5451 1.51738e-005 0
                    CHANNELS 3 Zrotation Xrotation Yrotation
                    End Site
                    {
                      OFFSET 0 0 0
                    }
                  }
                }
              }
            }
            JOINT Neck
            {
              OFFSET 5.0226 -0.0266342 0
              CHANNELS 3 Zrotation Xrotation Yrotation
              JOINT Head
              {
                OFFSET 6.69364 2.86102e-005 0
                CHANNELS 3 Zrotation Xrotation Yrotation
                End Site
                {
                  OFFSET 0 0 0
                }
              }
            }
          }
        }
      }
    }
  }
}
MOTION
Frames:	12
Frame Time:	0.0416667
-257.126 60.4128 -235.852 117.824 -39.2843 126.563 163.161 53.0477 147.731 -115.903 21.8409 5.18647 90.4217 24.4934 2.78996 40.5236 2.60457 7.09183 136.696 37.8922 92.9527 -111.821 -13.2716 -4.7021 92.7646 -21.7912 -2.60886 35.4082 -3.45716 2.91522 1.6292 16.7466 -92.6351 -6.60308 2.39519 -4.74642 -18.2808 2.18425 -4.84693 -40.7851 3.71002 -3.80898 -20.7724 3.71001 -3.809 73.7161 -32.8663 -134.989 -30.3921 -13.9836 -50.6733 -13.6562 -40.4976 -18.6963 -28.0568 -4.5698 13.3659 -90.4917 -25.2668 70.5634 12.4768 11.0486 -81.2421 9.69195 35.9566 -9.3842 13.3974 2.18408 11.9445 28.5999 -6.76606 -1.72123 -1.21024 -5.8727 -4.45865 
-256.969 60.3038 -235.785 117.898 -39.0683 126.717 162.99 52.7977 147.885 -116.103 21.5926 5.15527 90.9968 24.7547 2.45471 40.3729 2.55287 7.03294 136.569 37.715 92.5748 -111.982 -13.6117 -4.74659 92.8352 -21.91 -2.65605 35.5672 -3.51804 2.89049 1.6381 16.7695 -92.6399 -6.64869 2.41195 -4.75174 -18.3264 2.20074 -4.853 -40.8309 3.72759 -3.80905 -20.8182 3.72759 -3.80904 73.6224 -33.0492 -135.019 -30.9 -14.4402 -50.6587 -13.7901 -39.3392 -18.9568 -27.3041 -4.35033 12.995 -90.2862 -24.8617 70.8146 12.0583 11.1102 -81.4173 9.75804 36.6459 -9.29235 13.4087 2.16575 11.8062 28.4861 -6.38568 -2.23616 -1.68345 -5.27775 -3.18546 
-256.979 60.1001 -235.823 117.347 -39.2141 126.514 161.978 53.1947 148.538 -116.379 21.4999 5.10231 90.9385 24.6808 2.54026 40.5966 2.57749 7.30146 136.09 38.155 93.2 -112.256 -13.546 -4.73603 92.6833 -21.8139 -2.91285 35.8742 -3.6887 3.16278 1.64934 16.7205 -92.6624 -6.55034 2.42561 -4.79686 -18.2282 2.2124 -4.89866 -40.7319 3.75413 -3.84803 -20.7192 3.75414 -3.84802 73.4643 -33.2069 -135.173 -31.3429 -14.6993 -50.5435 -13.7053 -38.9493 -19.0276 -27.4505 -4.39867 13.0912 -90.3932 -24.9066 70.6148 11.1614 11.07 -81.2192 9.66337 37.3756 -8.85525 14.1239 2.28348 11.8846 28.4239 -6.02742 -2.18186 -1.98638 -4.94442 -2.77779 
-257.158 59.8303 -235.909 116.251 -39.6915 126.082 160.146 54.1025 149.89 -116.608 21.0633 5.03869 90.8278 24.3268 2.39296 40.6853 2.63601 7.23928 135.481 38.9871 94.7155 -112.433 -12.9037 -4.65259 92.633 -21.5201 -2.61737 35.2994 -3.44223 3.08858 1.67467 16.6317 -92.6799 -6.37198 2.46727 -4.83196 -18.0499 2.25249 -4.93556 -40.5536 3.80441 -3.86902 -20.541 3.80441 -3.86902 73.6455 -33.1052 -134.941 -30.7376 -14.3238 -50.8723 -13.7832 -39.6521 -18.9558 -27.2604 -4.36845 13.0991 -90.3321 -24.683 70.6473 10.8737 11.2426 -80.9669 10.1779 37.1445 -9.26101 13.8081 2.23627 11.9026 28.1921 -5.4933 -1.84903 -1.77178 -4.5765 -3.0102 
-257.461 59.4632 -235.891 114.983 -40.2253 125.579 157.709 55.0013 151.87 -116.854 20.6905 4.96383 90.9281 24.0153 2.10032 40.5605 2.52651 7.42035 135.204 39.7469 97.0754 -112.768 -10.9513 -4.46686 93.1238 -21.6402 -3.07456 35.5556 -3.66848 3.81097 1.72557 16.5519 -92.7088 -6.21096 2.55605 -4.88232 -17.889 2.33895 -4.98976 -40.3934 3.90418 -3.89039 -20.3807 3.90417 -3.89042 73.812 -33.1208 -134.652 -30.8817 -13.9862 -51.384 -13.4155 -39.7507 -18.541 -27.836 -4.48813 13.1895 -90.3021 -25.1712 70.9089 11.2247 10.6512 -81.13 9.8212 36.1305 -9.12287 17.4553 2.931 12.7919 28.8798 -5.31053 -1.66781 -2.05094 -4.45064 -3.12572 
-257.671 59.0657 -236.123 113.241 -41.0815 124.94 154.6 56.3505 154.357 -117.291 20.0038 4.87588 90.8092 23.4941 1.62973 40.4898 2.39165 7.77258 133.905 41.1958 99.4493 -113.01 -10.8068 -4.41265 92.5038 -20.9807 -2.65963 36.5101 -3.9389 3.10632 1.78473 16.4032 -92.7293 -5.91186 2.66159 -4.92074 -17.5898 2.44271 -5.03277 -40.0957 4.01638 -3.89535 -20.0831 4.01638 -3.89536 73.8759 -32.9525 -134.662 -31.9271 -14.4987 -52.0312 -11.943 -38.771 -17.1531 -27.903 -4.42129 12.8714 -90.2106 -25.1988 71.1051 10.839 10.6164 -81.1296 9.54796 35.1067 -8.65695 19.76 3.23645 12.5201 29.0206 -5.04852 -1.41326 -1.95051 -4.3017 -3.31736 
-257.873 58.578 -236.36 111.388 -42.1099 123.968 151.596 57.8945 156.872 -117.762 19.4294 4.77131 90.7274 23.1871 1.64597 40.5628 2.47762 7.59247 132.541 42.8964 102.038 -113.513 -10.1574 -4.3487 92.5065 -20.8631 -2.82689 36.1307 -3.92573 3.9747 1.86198 16.2454 -92.7173 -5.59373 2.81283 -4.8923 -17.2713 2.59507 -5.011 -39.7814 4.15214 -3.82266 -19.7688 4.15214 -3.82266 73.8285 -33.1174 -134.627 -32.1464 -14.3437 -51.7149 -12.62 -38.8582 -17.9958 -28.569 -4.61249 13.1879 -90.1614 -25.4412 71.3028 11.8174 10.4438 -81.5291 9.31755 34.9514 -8.74925 19.1507 3.15568 12.5879 29.594 -5.08271 -1.46268 -2.04647 -4.30128 -3.30198 
-258.079 58.0135 -236.591 109.679 -43.0665 123.077 148.238 59.2886 159.865 -118.376 18.9254 4.6549 90.5726 22.7501 1.46922 40.5751 2.46922 7.64137 131.086 44.6216 104.497 -114.072 -9.78279 -4.33749 92.2469 -20.3791 -2.24971 35.0815 -3.2869 2.71312 1.91227 16.1135 -92.7082 -5.32804 2.911 -4.87486 -17.0053 2.69391 -4.99792 -39.5182 4.24054 -3.77646 -19.5056 4.24055 -3.77646 73.8178 -33.0626 -134.683 -32.2288 -14.3716 -51.4673 -13.3236 -38.9437 -18.5719 -27.5852 -4.41989 13.0858 -90.228 -25.8068 71.3134 11.9733 10.2253 -81.4078 9.67941 35.1281 -9.19237 19.0934 3.12077 12.4536 29.6734 -4.98808 -1.22459 -1.64491 -4.31795 -3.49716 
-258.279 57.4719 -236.893 107.439 -44.3108 121.877 144.14 60.9512 163.753 -118.9 18.4594 4.55324 90.5228 22.3912 1.15517 40.5165 2.37644 7.86738 129.062 46.554 107.707 -114.631 -9.4195 -4.31897 91.9982 -19.8947 -1.86488 37.0471 -4.10856 2.80116 1.98188 15.9175 -92.6641 -4.93365 3.05658 -4.79131 -16.6103 2.84301 -4.92087 -39.1287 4.35435 -3.6528 -19.1161 4.35434 -3.65282 73.9032 -33.036 -134.558 -31.8943 -14.1371 -51.444 -14.1412 -38.945 -19.5348 -27.7021 -4.62836 13.8496 -89.9332 -25.0643 71.6165 11.0935 10.3708 -81.207 10.4798 35.4597 -9.71888 18.6031 3.10036 12.7425 29.5872 -5.03935 -1.69562 -0.582263 -4.20549 -3.12663 
-258.487 56.9036 -237.147 105.445 -45.6184 120.622 140.366 62.4211 167.386 -119.47 17.9813 4.44865 90.2393 22.1149 1.6061 40.732 2.54401 7.63387 127.439 48.486 110.964 -115.137 -8.69649 -4.27903 91.67 -19.5418 -1.94674 37.253 -4.30881 3.56705 2.03404 15.7231 -92.6065 -4.5432 3.17271 -4.68612 -16.2192 2.96365 -4.8209 -38.743 4.43356 -3.51733 -18.7303 4.43356 -3.51734 73.917 -32.9299 -134.608 -32.1325 -14.5301 -51.7747 -13.4253 -38.8213 -18.835 -28.7606 -4.71861 13.4625 -89.982 -25.1014 71.5312 11.0308 10.5694 -80.7115 10.9128 35.3349 -10.2921 18.6721 3.09561 12.6611 29.3914 -4.93738 -1.21008 1.09978 -4.37253 -3.77234 
-258.703 56.3057 -237.336 103.888 -46.7281 119.291 137.337 63.6009 170.247 -119.999 17.2487 4.36937 90.2162 21.6945 1.30981 40.7493 2.58563 7.51682 126.028 50.3815 113.662 -115.852 -8.00016 -4.30018 91.6033 -19.3644 -1.82024 36.8522 -4.13885 3.49994 2.06375 15.5665 -92.5256 -4.22896 3.25347 -4.53673 -15.9042 3.05088 -4.67522 -38.4333 4.46576 -3.3503 -18.4207 4.46576 -3.3503 73.8976 -33.0287 -134.573 -31.4033 -14.4619 -51.3239 -14.7931 -39.8237 -20.0749 -29.0446 -4.90721 14.0059 -89.8948 -24.8036 71.5909 10.6072 10.8636 -80.5857 11.3161 35.5509 -10.707 18.4772 3.0417 12.5329 29.5719 -5.64353 -1.6323 1.86965 -4.87986 -3.32762 
-258.824 55.7323 -237.419 102.218 -47.874 117.888 134.214 64.612 173.456 -120.57 16.928 4.28801 90.2706 21.4326 1.173 40.924 2.61585 7.69332 124.642 52.1692 116.406 -116.512 -7.00153 -4.27609 91.7317 -19.1009 -1.29869 36.4146 -3.98466 3.63967 2.12381 15.391 -92.4707 -3.87621 3.38566 -4.43515 -15.5508 3.1874 -4.57958 -38.0854 4.56136 -3.21343 -18.0728 4.56137 -3.21341 73.8552 -33.1664 -134.549 -30.5046 -14.5262 -50.6324 -15.6295 -39.7674 -20.6782 -28.0795 -4.72425 13.9664 -90.1721 -25.943 71.4796 11.9201 10.9751 -80.8589 10.9988 35.4486 -10.8885 18.1497 3.01188 12.6461 29.8277 -6.50646 -2.33317 2.39153 -5.39482 -2.56326 
